<svg width="18" height="18" viewBox="0 0 18 18" fill="none" xmlns="http://www.w3.org/2000/svg">
<path d="M8.99999 0C4.04999 0 0 4.05723 0 9.05422C0 13.5723 3.294 17.3223 7.59599 18V11.6747H5.30999V9.05422H7.59599V7.05723C7.59599 4.78916 8.93699 3.54217 10.998 3.54217C11.979 3.54217 13.005 3.71386 13.005 3.71386V5.94578H11.871C10.755 5.94578 10.404 6.64157 10.404 7.35542V9.05422H12.906L12.501 11.6747H10.404V18C12.5248 17.6637 14.456 16.5773 15.8489 14.9368C17.2419 13.2963 18.0048 11.2099 18 9.05422C18 4.05723 13.95 0 8.99999 0Z" fill="#0DBAA0"/>
</svg>
