<svg width="18" height="18" viewBox="0 0 18 18" fill="none" xmlns="http://www.w3.org/2000/svg">
<path d="M18 9C18 13.9706 13.9706 18 9 18C4.02944 18 0 13.9706 0 9C0 4.02944 4.02944 0 9 0C13.9706 0 18 4.02944 18 9Z" fill="#0DBAA0"/>
<path d="M14.639 8.48455H9.24414V10.0481H13.0741C12.8799 12.2302 11.015 13.1637 9.25003 13.1637C6.99677 13.1637 5.02002 11.4341 5.02002 9C5.02002 6.65182 6.90264 4.83628 9.25591 4.83628C11.0738 4.83628 12.1387 5.96455 12.1387 5.96455L13.2565 4.83055C13.2565 4.83055 11.821 3.27273 9.19708 3.27273C5.85543 3.27273 3.27272 6.02182 3.27272 9C3.27272 11.8923 5.70247 14.7273 9.28533 14.7273C12.4328 14.7273 14.7273 12.6254 14.7273 9.52119C14.7273 8.86255 14.639 8.48455 14.639 8.48455Z" fill="#282828"/>
<path d="M18 9C18 13.9706 13.9706 18 9 18C4.02944 18 0 13.9706 0 9C0 4.02944 4.02944 0 9 0C13.9706 0 18 4.02944 18 9Z" stroke="#282828"/>
<path d="M14.639 8.48455H9.24414V10.0481H13.0741C12.8799 12.2302 11.015 13.1637 9.25003 13.1637C6.99677 13.1637 5.02002 11.4341 5.02002 9C5.02002 6.65182 6.90264 4.83628 9.25591 4.83628C11.0738 4.83628 12.1387 5.96455 12.1387 5.96455L13.2565 4.83055C13.2565 4.83055 11.821 3.27273 9.19708 3.27273C5.85543 3.27273 3.27272 6.02182 3.27272 9C3.27272 11.8923 5.70247 14.7273 9.28533 14.7273C12.4328 14.7273 14.7273 12.6254 14.7273 9.52119C14.7273 8.86255 14.639 8.48455 14.639 8.48455Z" stroke="#282828"/>
</svg>
