<svg width="137" height="32" viewBox="0 0 137 32" fill="none" xmlns="http://www.w3.org/2000/svg">
<path d="M52.5777 0C52.735 0.264919 52.8136 0.5188 52.8136 0.761642C52.2968 0.894101 51.8362 1.04864 51.4318 1.22525C51.0498 1.37979 50.7015 1.56744 50.387 1.7882C50.0724 1.98689 49.7803 2.24077 49.5107 2.54984C49.2635 2.83684 49.0164 3.17903 48.7692 3.57641C48.6344 3.77509 48.4771 3.92963 48.2974 4.04001C48.1401 4.1504 48.0053 4.31597 47.8929 4.53674C47.7356 4.82373 47.612 5.14384 47.5222 5.49707C47.4323 5.82822 47.3424 6.1704 47.2525 6.52363C47.2076 6.63401 47.1627 6.75543 47.1177 6.88789C47.0728 6.99828 47.0278 7.10866 46.9829 7.21904C46.938 7.46188 46.9267 7.69369 46.9492 7.91445C46.9717 8.13522 46.938 8.35599 46.8481 8.57675C46.7807 8.75336 46.6908 8.89686 46.5785 9.00724C46.4661 9.11763 46.3762 9.23905 46.3088 9.37151C46.1291 9.68058 46.0055 10.0228 45.9381 10.3981C45.8932 10.7734 45.8482 11.1707 45.8033 11.5902C45.7808 11.7227 45.7359 11.8441 45.6685 11.9545C45.6235 12.0649 45.5786 12.1863 45.5336 12.3187C45.4887 12.4953 45.455 12.672 45.4325 12.8486C45.4101 13.0031 45.3764 13.1687 45.3314 13.3453C45.1741 13.7868 45.0056 14.2394 44.8259 14.703C44.6686 15.1445 44.5562 15.5861 44.4888 16.0276C44.4439 16.2704 44.4214 16.5133 44.4214 16.7561C44.4439 16.9769 44.4327 17.2087 44.3877 17.4515C44.2754 18.0918 44.1181 18.7099 43.9159 19.306C43.7136 19.88 43.5227 20.4429 43.3429 20.9948C43.2306 21.3922 43.1407 21.7675 43.0733 22.1207C43.0283 22.4519 42.9385 22.8051 42.8036 23.1804C42.7138 23.3791 42.6464 23.5667 42.6014 23.7434C42.5565 23.8979 42.4666 24.0524 42.3318 24.207C42.197 24.3615 42.006 24.4829 41.7588 24.5712C41.5117 24.6595 41.2533 24.7368 40.9837 24.803C40.714 24.8693 40.4444 24.9245 40.1748 24.9686C39.9276 25.0348 39.7029 25.1011 39.5007 25.1673C39.2985 25.2556 39.13 25.377 38.9951 25.5316C38.8603 25.7082 38.7143 25.8627 38.557 25.9952C38.3997 26.1497 38.22 26.2491 38.0177 26.2932C37.838 26.3594 37.5908 26.3263 37.2762 26.1939C37.2538 25.9289 37.2425 25.6309 37.2425 25.2998C37.265 24.9686 37.2987 24.6706 37.3437 24.4057C37.4111 24.0304 37.5234 23.6992 37.6807 23.4122C37.8605 23.1252 38.029 22.8161 38.1863 22.485C38.4334 21.911 38.5907 21.3591 38.6581 20.8293C38.7255 20.2994 38.8716 19.7475 39.0963 19.1735C39.2985 19.041 39.4333 18.8976 39.5007 18.743C39.5681 18.5885 39.6018 18.4229 39.6018 18.2463C39.6243 18.0476 39.6243 17.8379 39.6018 17.6171C39.5793 17.3963 39.5906 17.1535 39.6355 16.8886C39.658 16.6237 39.7254 16.3587 39.8377 16.0938C39.9501 15.8289 40.0287 15.5529 40.0737 15.266C40.1186 15.0231 40.1411 14.8355 40.1411 14.703C40.1635 14.5485 40.1748 14.416 40.1748 14.3056C40.1972 14.1952 40.2197 14.0849 40.2422 13.9745C40.2871 13.842 40.3433 13.6764 40.4107 13.4778C40.5006 13.2791 40.6017 13.0804 40.714 12.8817C40.8264 12.683 40.9275 12.4733 41.0174 12.2525C41.1971 11.6785 41.3319 11.0714 41.4218 10.4312C41.5117 9.79096 41.6016 9.16178 41.6914 8.54364C41.7364 8.16833 41.8038 7.74888 41.8937 7.28527C42.006 6.82166 42.0397 6.40221 41.9948 6.02691C41.9049 6.02691 41.7364 6.15937 41.4892 6.42428C41.2645 6.6892 40.9837 7.04243 40.6466 7.48396C40.3321 7.90342 39.9725 8.3891 39.5681 8.94101C39.1861 9.47085 38.8042 10.0228 38.4222 10.5968C38.0627 11.1487 37.7144 11.6785 37.3774 12.1863C37.0628 12.672 36.8044 13.0914 36.6022 13.4446C36.2651 13.6433 36.0067 13.8751 35.827 14.14C35.6697 14.3829 35.5349 14.6478 35.4226 14.9348C35.3102 15.2218 35.1979 15.5309 35.0855 15.862C34.9732 16.1711 34.8046 16.4912 34.58 16.8224C34.4002 17.5067 34.0969 18.1801 33.67 18.8424C33.243 19.5047 32.8948 20.1559 32.6251 20.7961C32.5577 20.9727 32.4903 21.1383 32.4229 21.2929C32.378 21.4253 32.2993 21.5799 32.187 21.7565C32.0072 22.198 31.7938 22.6285 31.5466 23.0479C31.3219 23.4453 31.086 23.8648 30.8389 24.3063C30.5692 24.7478 30.2659 25.1563 29.9289 25.5316C29.794 25.7082 29.6817 25.94 29.5918 26.227C29.5244 26.514 29.4121 26.6795 29.2548 26.7237C29.0526 26.7679 28.8391 26.7347 28.6144 26.6244C28.3897 26.536 28.1763 26.4698 27.974 26.4257C27.5696 25.8517 27.3337 25.2777 27.2663 24.7037C27.2663 24.5492 27.2887 24.4057 27.3337 24.2732C27.3786 24.1187 27.3898 23.9752 27.3674 23.8427C27.3449 23.5999 27.2438 23.3349 27.064 23.0479C26.8843 22.7389 26.7719 22.4298 26.727 22.1207C26.6371 21.7454 26.6371 21.3922 26.727 21.0611C26.8169 20.7078 26.8169 20.3877 26.727 20.1007C26.6821 19.9683 26.5922 19.8579 26.4574 19.7696C26.345 19.6592 26.2664 19.5488 26.2215 19.4384C26.1765 19.2839 26.154 19.1073 26.154 18.9086C26.1765 18.7099 26.1765 18.5112 26.154 18.3125C26.0866 17.9372 25.9743 17.5178 25.817 17.0542C25.6822 16.5905 25.5586 16.1269 25.4463 15.6633C25.3339 15.3322 25.1766 14.9458 24.9744 14.5043C24.7947 14.0628 24.6823 13.6433 24.6374 13.2459C24.6149 13.0252 24.5924 12.8265 24.57 12.6499C24.57 12.4512 24.5587 12.2635 24.5363 12.0869C24.4913 11.6895 24.3902 11.2591 24.2329 10.7954C24.0756 10.3318 23.9071 9.86823 23.7274 9.40462C23.5701 8.94102 23.424 8.47741 23.2892 8.0138C23.1769 7.55019 23.1207 7.09762 23.1207 6.65609C23.0084 6.70024 22.9073 6.79959 22.8174 6.95412C22.7275 7.10866 22.6376 7.29631 22.5477 7.51708C22.4579 7.73784 22.3792 7.95861 22.3118 8.17937C22.2444 8.40014 22.1882 8.57675 22.1433 8.70921C22.0759 8.81959 21.986 8.94101 21.8737 9.07347C21.7613 9.20593 21.6939 9.36047 21.6715 9.53708C21.649 9.62539 21.6602 9.72473 21.7052 9.83512C21.7726 9.9455 21.8063 10.0669 21.8063 10.1994C21.8287 10.5526 21.7613 10.9279 21.604 11.3253C21.4468 11.7006 21.3119 12.0759 21.1996 12.4512C21.0873 12.8927 20.9974 13.3563 20.93 13.842C20.8626 14.3056 20.7278 14.7913 20.5255 15.2991C20.3458 15.7848 20.1997 16.2815 20.0874 16.7892C19.9975 17.2749 19.8964 17.7165 19.784 18.1138C19.7391 18.4008 19.7166 18.6878 19.7166 18.9748C19.7166 19.2618 19.6717 19.4936 19.5818 19.6702C19.4695 19.891 19.2785 20.0676 19.0089 20.2001C18.7617 20.3325 18.6044 20.5202 18.537 20.763C18.5145 21.2266 18.4134 21.7565 18.2337 22.3525C18.0539 22.9486 17.8966 23.5005 17.7618 24.0083C17.7169 24.207 17.6832 24.4167 17.6607 24.6375C17.6383 24.8362 17.5933 25.0128 17.5259 25.1673C17.481 25.3439 17.3911 25.4874 17.2563 25.5978C17.1439 25.7303 16.9642 25.8075 16.717 25.8296C16.2901 25.8737 15.8632 25.7744 15.4363 25.5316C15.0318 25.2887 14.7847 25.0348 14.6948 24.7699C14.6499 24.5933 14.6499 24.4167 14.6948 24.2401C14.7397 24.0414 14.7622 23.8537 14.7622 23.6771C14.4701 23.8537 14.2454 23.942 14.0881 23.942C13.9533 23.942 13.8297 23.8979 13.7174 23.8096C13.605 23.6992 13.4815 23.5667 13.3467 23.4122C13.2118 23.2356 13.0321 23.07 12.8074 22.9155C12.5827 22.7389 12.4142 22.6395 12.3018 22.6175C12.1895 22.5733 12.1108 22.3967 12.0659 22.0876C12.021 21.7565 12.0434 21.4364 12.1333 21.1273C12.2232 20.8182 12.3355 20.5643 12.4704 20.3656C12.5378 20.2332 12.6276 20.1228 12.74 20.0345C12.8523 19.9241 12.9422 19.8137 13.0096 19.7033C13.0995 19.5267 13.0995 19.2839 13.0096 18.9748C12.9422 18.6437 12.9647 18.3567 13.077 18.1138C13.2343 17.7827 13.4028 17.4736 13.5826 17.1866C13.7623 16.8775 13.8634 16.5022 13.8859 16.0607C13.9084 15.8841 13.8971 15.6964 13.8522 15.4978C13.8073 15.2991 13.8073 15.1114 13.8522 14.9348C13.8747 14.7582 13.9084 14.5816 13.9533 14.405C14.0207 14.2063 14.0881 13.9855 14.1555 13.7427C14.2229 13.4115 14.3465 13.0583 14.5263 12.683C14.706 12.3077 14.8521 11.8993 14.9644 11.4577C15.0543 11.2811 15.1329 11.1045 15.2004 10.9279C15.2678 10.7292 15.3352 10.5416 15.4026 10.365C15.5374 9.98965 15.6273 9.62539 15.6722 9.27216C15.7396 8.89686 15.8295 8.5326 15.9418 8.17937C15.9868 8.04691 16.0542 7.93653 16.1441 7.84822C16.2564 7.73784 16.335 7.62746 16.38 7.51708C16.5597 7.14177 16.6496 6.75543 16.6496 6.35805C16.6496 5.9386 16.6945 5.50811 16.7844 5.06658C16.8518 4.64712 16.9305 4.27182 17.0204 3.94067C17.1327 3.58744 17.2226 3.26733 17.29 2.98034C17.3574 2.67127 17.3686 2.38427 17.3237 2.11935C17.3012 1.85443 17.1889 1.57848 16.9866 1.29148C16.8743 1.13694 16.7507 1.02656 16.6159 0.960331C16.5036 0.894101 16.4362 0.805795 16.4137 0.695412C16.4137 0.430493 16.5148 0.286996 16.717 0.264919C16.9417 0.220766 17.1889 0.231804 17.4585 0.298034C17.7281 0.364264 17.9865 0.45257 18.2337 0.562953C18.5033 0.651259 18.6718 0.706451 18.7392 0.728527C18.8516 0.750604 18.9864 0.750604 19.1437 0.728527C19.301 0.706451 19.4695 0.717489 19.6492 0.761642C19.8515 0.783719 20.0537 0.816833 20.2559 0.860987C20.4581 0.90514 20.6379 0.938255 20.7952 0.960331C21.1547 0.960331 21.4131 0.960331 21.5703 0.960331C21.7276 0.938255 21.9748 0.916178 22.3118 0.894101C22.6264 0.872025 23.0084 0.872025 23.4577 0.894101C23.9296 0.916178 24.334 0.90514 24.6711 0.860987C24.9632 0.83891 25.3227 0.794757 25.7496 0.728527C26.199 0.662297 26.6259 0.607106 27.0303 0.562953C27.4573 0.5188 27.828 0.5188 28.1426 0.562953C28.4796 0.585029 28.6706 0.695412 28.7155 0.894101C28.7829 1.13694 28.7155 1.35771 28.5133 1.5564C28.3335 1.73301 28.2212 1.92066 28.1763 2.11935C28.1313 2.64919 28.0751 3.24526 28.0077 3.90755C27.9403 4.54778 27.9403 5.08865 28.0077 5.53018C28.0527 5.77303 28.0639 6.01587 28.0414 6.25871C28.019 6.47948 28.0414 6.67816 28.1089 6.85478C28.2437 7.34046 28.3448 7.80407 28.4122 8.2456C28.4347 8.51052 28.5358 8.7644 28.7155 9.00724C28.9177 9.22801 29.0076 9.45981 28.9852 9.70266C28.9627 10.0117 29.0189 10.3318 29.1537 10.663C29.311 10.9721 29.4008 11.3032 29.4233 11.6564C29.4682 12.0097 29.4907 12.3739 29.4907 12.7492C29.5132 13.1245 29.6368 13.4667 29.8614 13.7758C30.0861 13.5992 30.221 13.3784 30.2659 13.1135C30.3333 12.8486 30.4232 12.5947 30.5355 12.3518C30.5805 12.2415 30.6479 12.1421 30.7377 12.0538C30.8501 11.9434 30.9512 11.833 31.0411 11.7227C31.2882 11.2149 31.5916 10.6851 31.9511 10.1332C32.333 9.55916 32.6589 8.98517 32.9285 8.41118C33.2206 7.85926 33.5014 7.30735 33.7711 6.75543C34.0407 6.18144 34.2991 5.60745 34.5463 5.03346C34.5912 4.94515 34.6698 4.84581 34.7822 4.73543C34.917 4.62504 35.0518 4.51466 35.1866 4.40428C35.3214 4.29389 35.445 4.19455 35.5574 4.10624C35.6922 3.99586 35.7933 3.88548 35.8607 3.77509C36.1977 3.15695 36.4786 2.62711 36.7033 2.18558C36.9505 1.72197 37.1302 1.14798 37.2425 0.463608C37.647 0.441532 38.029 0.45257 38.3885 0.496723C38.7705 0.540876 39.1861 0.596068 39.6355 0.662297C39.8153 0.706451 39.9725 0.761642 40.1074 0.827872C40.2646 0.894101 40.4219 0.938255 40.5792 0.960331C40.8938 1.00448 41.1409 1.01552 41.3207 0.993446C41.5229 0.97137 41.6914 0.949293 41.8262 0.927216C41.9835 0.883063 42.1296 0.860987 42.2644 0.860987C42.4217 0.83891 42.6351 0.872025 42.9048 0.960331C43.6687 0.960331 44.4551 0.90514 45.264 0.794757C46.0729 0.684374 46.8818 0.573991 47.6907 0.463608C48.522 0.331149 49.3422 0.220766 50.151 0.132459C50.9824 0.0441532 51.7913 0 52.5777 0Z" fill="white"/>
<path d="M64.0275 10.4974C64.2522 10.9389 64.4207 11.3474 64.5331 11.7227C64.6454 12.098 64.7353 12.6057 64.8027 13.2459C64.8476 13.6875 64.8926 14.0849 64.9375 14.4381C65.0049 14.7692 65.0162 15.1887 64.9712 15.6964C64.9488 16.0497 64.8926 16.425 64.8027 16.8224C64.7128 17.1977 64.6005 17.5509 64.4657 17.882C64.2634 18.4781 64.0725 18.9969 63.8927 19.4384C63.713 19.88 63.4995 20.3546 63.2523 20.8624C63.0951 21.1494 62.9378 21.3812 62.7805 21.5578C62.6232 21.7344 62.4547 21.922 62.2749 22.1207C62.23 22.187 62.1851 22.2642 62.1401 22.3525C62.1176 22.4408 62.0727 22.5181 62.0053 22.5843C61.7132 22.9155 61.3088 23.2577 60.792 23.6109C60.2976 23.9641 59.837 24.218 59.4101 24.3725C59.2528 24.4167 59.0843 24.4498 58.9046 24.4719C58.7473 24.4719 58.5788 24.494 58.399 24.5381C58.1743 24.6264 57.9833 24.7589 57.826 24.9355C57.6688 25.09 57.4665 25.2004 57.2194 25.2666C57.0846 25.3108 56.916 25.3439 56.7138 25.366C56.5341 25.4101 56.3543 25.4543 56.1746 25.4984C55.7252 25.6088 55.1635 25.7192 54.4894 25.8296C53.8378 25.94 53.2311 25.9289 52.6694 25.7965C52.5795 25.7744 52.4896 25.7303 52.3998 25.664C52.3099 25.5978 52.2088 25.5426 52.0964 25.4984C51.9841 25.4543 51.8717 25.4212 51.7594 25.3991C51.647 25.377 51.5459 25.3439 51.4561 25.2998C51.164 25.1894 50.8831 25.0348 50.6135 24.8362C50.3438 24.6375 50.063 24.4829 49.7709 24.3725C49.4563 24.1959 49.1417 24.0414 48.8272 23.9089C48.5126 23.7544 48.2991 23.4895 48.1868 23.1142C47.8048 23.0038 47.5352 22.7499 47.3779 22.3525C47.2206 21.9552 47.0296 21.6019 46.8049 21.2929C46.7375 21.1825 46.6364 21.0942 46.5016 21.0279C46.3893 20.9396 46.3106 20.8403 46.2657 20.7299C46.1084 20.4871 45.9848 20.1007 45.895 19.5709C45.8051 19.019 45.7489 18.5554 45.7264 18.1801C45.704 17.7827 45.7264 17.4074 45.7938 17.0542C45.8837 16.6789 45.9736 16.3146 46.0635 15.9614C46.1758 15.6081 46.2882 15.266 46.4005 14.9348C46.5353 14.6037 46.6477 14.2835 46.7375 13.9745C46.8274 13.5992 46.9959 13.3011 47.2431 13.0804C47.4903 12.8596 47.7262 12.6168 47.9509 12.3518C48.0407 12.2635 48.1082 12.1642 48.1531 12.0538C48.198 11.9434 48.2654 11.833 48.3553 11.7227C48.5351 11.5019 48.7373 11.3142 48.962 11.1597C49.1867 10.9831 49.4001 10.8065 49.6024 10.6299C49.827 10.4533 50.063 10.2877 50.3101 10.1332C50.5573 9.95654 50.7595 9.77992 50.9168 9.60331C51.0965 9.36047 51.2314 9.11763 51.3212 8.87478C51.4336 8.63194 51.6021 8.42221 51.8268 8.2456C52.074 8.04691 52.3436 7.90342 52.6357 7.81511C52.9503 7.7268 53.3098 7.62746 53.7142 7.51708C54.0962 7.42877 54.4669 7.30735 54.8264 7.15281C55.2084 6.9762 55.6128 6.86582 56.0397 6.82166C56.4442 6.77751 56.8823 6.75543 57.3542 6.75543C57.826 6.73336 58.2867 6.74439 58.736 6.78855C59.2079 6.8327 59.646 6.90997 60.0505 7.02035C60.4774 7.13073 60.8481 7.28527 61.1627 7.48396C61.32 7.57227 61.4773 7.70473 61.6346 7.88134C61.8143 8.05795 61.9828 8.22353 62.1401 8.37806C62.4996 8.73129 62.803 9.09555 63.0501 9.47085C63.3197 9.82408 63.6455 10.1663 64.0275 10.4974ZM56.6801 9.00724C56.5902 9.00724 56.4554 9.04036 56.2757 9.10659C56.1184 9.17282 55.9499 9.25009 55.7701 9.33839C55.6128 9.40462 55.4668 9.48189 55.332 9.5702C55.1972 9.6585 55.0961 9.72473 55.0286 9.76889C54.759 10.0117 54.5119 10.3208 54.2872 10.6961C54.0849 11.0493 53.849 11.3694 53.5794 11.6564C53.467 11.7668 53.3435 11.8551 53.2086 11.9214C53.0963 11.9655 53.0064 12.0317 52.939 12.12C52.557 12.5395 52.2762 13.0252 52.0964 13.5771C51.9391 14.129 51.7706 14.6588 51.5909 15.1666C51.3886 15.6964 51.1977 16.2925 51.0179 16.9548C50.8382 17.6171 50.782 18.2463 50.8494 18.8424C50.8719 18.9748 50.9168 19.1514 50.9842 19.3722C51.0741 19.5709 51.1527 19.7585 51.2201 19.9352C51.31 20.1338 51.3886 20.3325 51.4561 20.5312C51.5459 20.7078 51.6358 20.8734 51.7257 21.0279C51.8605 21.2929 52.029 21.5799 52.2312 21.8889C52.4559 22.1759 52.7031 22.4298 52.9727 22.6506C53.2648 22.8493 53.5794 23.0038 53.9164 23.1142C54.2759 23.2025 54.6579 23.1914 55.0623 23.0811C55.3095 22.9928 55.6128 22.8603 55.9723 22.6837C56.3318 22.485 56.6577 22.2973 56.9498 22.1207C57.3767 21.8558 57.68 21.5909 57.8598 21.326C58.0395 21.039 58.2192 20.6747 58.399 20.2332C58.4439 20.1228 58.5001 20.0235 58.5675 19.9352C58.6574 19.8248 58.736 19.7144 58.8034 19.604C58.9383 19.3612 59.0506 19.0962 59.1405 18.8092C59.2304 18.5223 59.3427 18.2463 59.4775 17.9814C59.7472 17.3853 59.9157 16.8113 59.9831 16.2594C60.0505 15.7075 60.1067 15.0452 60.1516 14.2725C60.1741 13.8531 60.1404 13.544 60.0505 13.3453C59.9831 13.1466 59.9269 12.8706 59.882 12.5174C59.8595 12.2746 59.8483 12.0538 59.8483 11.8551C59.8483 11.6344 59.8033 11.4467 59.7134 11.2922C59.6011 11.0935 59.3876 10.961 59.0731 10.8948C58.781 10.8286 58.5451 10.7071 58.3653 10.5305C58.1856 10.2435 57.9946 9.96758 57.7923 9.70266C57.5901 9.43774 57.343 9.21697 57.0509 9.04036C56.9385 9.06244 56.8599 9.06244 56.8149 9.04036C56.77 9.01828 56.7251 9.00724 56.6801 9.00724Z" fill="white"/>
<path d="M72.4049 20.2663C72.7419 20.0676 73.0003 19.8027 73.1801 19.4715C73.3823 19.1183 73.5958 18.7872 73.8205 18.4781C74.0676 18.1911 74.3148 17.9151 74.5619 17.6502C74.8091 17.3853 75.045 17.0983 75.2697 16.7892C75.2922 16.6568 75.3034 16.5795 75.3034 16.5574C75.3259 16.5354 75.3371 16.5243 75.3371 16.5243C75.3596 16.5022 75.3708 16.4802 75.3708 16.4581C75.3933 16.436 75.427 16.3698 75.4719 16.2594C75.764 16.0828 76.0449 15.8841 76.3145 15.6633C76.6066 15.4205 76.6853 15.0342 76.5505 14.5043C76.7077 14.1952 76.8538 13.9414 76.9886 13.7427C77.1234 13.5219 77.2582 13.3232 77.393 13.1466C77.5503 12.9479 77.6964 12.7492 77.8312 12.5505C77.9885 12.3298 78.157 12.0759 78.3367 11.7889C78.6513 11.7447 78.8423 11.5902 78.9097 11.3253C78.9771 11.0383 79.067 10.7513 79.1793 10.4643C79.2917 10.2215 79.4153 9.98965 79.5501 9.76889C79.6849 9.54812 79.8085 9.33839 79.9208 9.1397C80.0781 8.91894 80.2242 8.70921 80.359 8.51052C80.4938 8.31183 80.6398 8.13522 80.7971 7.98068C80.8645 7.73784 80.9881 7.47292 81.1679 7.18593C81.3476 6.89893 81.5611 6.64505 81.8082 6.42428C82.0779 6.20352 82.37 6.06002 82.6845 5.99379C83.0216 5.90548 83.3698 5.9386 83.7293 6.09314C83.9316 6.18144 84.1113 6.35806 84.2686 6.62297C84.4483 6.88789 84.5495 7.14177 84.5719 7.38462C84.5719 7.78199 84.4371 8.16833 84.1675 8.54364C83.8979 8.91894 83.7069 9.23905 83.5945 9.50397C83.617 9.70266 83.5833 9.87927 83.4934 10.0338C83.4035 10.1883 83.2912 10.3318 83.1564 10.4643C83.0216 10.5968 82.8867 10.7182 82.7519 10.8286C82.6171 10.9389 82.516 11.0604 82.4486 11.1928C82.179 11.4136 81.9655 11.6012 81.8082 11.7558C81.6734 11.8882 81.4487 12.0648 81.1341 12.2856C80.9319 12.4622 80.7747 12.6499 80.6623 12.8486C80.55 13.0473 80.4601 13.268 80.3927 13.5109C80.3253 13.7316 80.2579 13.9745 80.1905 14.2394C80.123 14.5043 80.0219 14.7803 79.8871 15.0673C79.6849 15.5088 79.4153 15.9062 79.0782 16.2594C78.7412 16.5905 78.4491 16.9659 78.2019 17.3853C77.9098 17.8268 77.7188 18.2573 77.629 18.6768C77.5616 19.0742 77.3818 19.4936 77.0897 19.9352C76.9998 20.0897 76.8875 20.2442 76.7527 20.3988C76.6179 20.5312 76.4943 20.6747 76.3819 20.8293C75.955 21.3812 75.5169 21.9331 75.0675 22.485C74.6406 23.0369 74.2698 23.644 73.9553 24.3063C73.8205 24.3284 73.6969 24.4057 73.5845 24.5381C73.4947 24.6706 73.3935 24.792 73.2812 24.9024C73.2138 24.9465 73.1239 24.9796 73.0116 25.0017C72.8992 25.0459 72.7981 25.09 72.7082 25.1342C72.5734 25.2446 72.4498 25.355 72.3375 25.4653C72.2252 25.5757 72.0454 25.6751 71.7982 25.7634C71.6185 25.8075 71.405 25.8406 71.1579 25.8627C70.9332 25.9069 70.7534 25.9179 70.6186 25.8958C70.2591 25.8296 69.9333 25.5978 69.6412 25.2004C69.3491 24.8251 69.1469 24.4498 69.0345 24.0745C68.675 23.7654 68.4166 23.4122 68.2594 23.0148C68.1021 22.5954 67.9785 22.1097 67.8886 21.5578C67.8661 21.4474 67.8549 21.3481 67.8549 21.2597C67.8774 21.1714 67.8886 21.0721 67.8886 20.9617C67.8661 20.7409 67.7987 20.5202 67.6864 20.2994C67.574 20.0566 67.4505 19.8137 67.3157 19.5709C67.1808 19.328 67.0573 19.0852 66.9449 18.8424C66.8326 18.5774 66.7764 18.3236 66.7764 18.0807C66.7764 17.86 66.7876 17.6392 66.8101 17.4184C66.8326 17.1977 66.8213 16.9659 66.7764 16.723C66.7315 16.5022 66.6416 16.3146 66.5068 16.1601C66.3944 15.9834 66.327 15.7406 66.3045 15.4315C66.2821 15.2549 66.2484 15.0231 66.2034 14.7361C66.181 14.427 66.1473 14.118 66.1023 13.8089C66.0798 13.4778 66.0574 13.1687 66.0349 12.8817C66.0124 12.5726 65.99 12.3408 65.9675 12.1863C65.9226 11.7447 65.8102 11.2591 65.6305 10.7292C65.4507 10.1773 65.3159 9.71369 65.226 9.33839C65.1811 9.11763 65.1586 8.83063 65.1586 8.47741C65.1586 8.12418 65.1699 7.91445 65.1923 7.84822C65.2373 7.67161 65.3721 7.50604 65.5968 7.3515C65.8439 7.17489 66.0686 7.08658 66.2708 7.08658C66.4731 7.08658 66.6416 7.15281 66.7764 7.28527C66.9112 7.41773 67.091 7.51708 67.3157 7.5833C67.4954 7.62746 67.6414 7.66057 67.7538 7.68265C67.8661 7.70473 68.0459 7.71576 68.2931 7.71576C68.5177 7.69369 68.7424 7.71576 68.9671 7.78199C69.2143 7.84822 69.4277 7.90342 69.6075 7.94757C69.9895 8.05795 70.2703 8.32287 70.4501 8.74232C70.6298 9.16178 70.686 9.62539 70.6186 10.1332C70.5737 10.3318 70.5512 10.5526 70.5512 10.7954C70.5512 11.0383 70.5175 11.2591 70.4501 11.4577C70.4052 11.6123 70.4164 11.7558 70.4838 11.8882C70.5737 11.9986 70.6074 12.12 70.5849 12.2525C70.5849 12.385 70.6074 12.5947 70.6523 12.8817C70.6973 13.1466 70.7534 13.4446 70.8208 13.7758C70.8882 14.0849 70.9556 14.3829 71.023 14.6699C71.0905 14.9569 71.1466 15.1666 71.1916 15.2991C71.2814 15.5861 71.405 15.862 71.5623 16.1269C71.7196 16.3698 71.7982 16.6126 71.7982 16.8555C71.7982 16.9879 71.7758 17.1204 71.7308 17.2528C71.6859 17.3632 71.6634 17.4736 71.6634 17.584C71.6185 18.1359 71.6634 18.6326 71.7982 19.0742C71.9555 19.4936 72.1577 19.891 72.4049 20.2663Z" fill="white"/>
<path d="M82.3138 23.2466C82.3587 22.7389 82.5272 22.2863 82.8193 21.8889C83.1339 21.4695 83.3698 21.039 83.5271 20.5974C83.617 20.3105 83.6732 20.0124 83.6956 19.7033C83.7406 19.3722 83.763 19.0521 83.763 18.743C83.7855 18.4119 83.8192 18.0918 83.8642 17.7827C83.9091 17.4515 83.9877 17.1314 84.1001 16.8224C83.9877 16.6237 83.9428 16.4029 83.9653 16.1601C83.9877 15.9172 83.999 15.6633 83.999 15.3984C84.1113 15.2439 84.2012 15.0673 84.2686 14.8686C84.336 14.6699 84.4933 14.5374 84.7404 14.4712C84.9651 13.9855 85.0775 13.4888 85.0775 12.981C85.0775 12.4512 85.1337 11.9103 85.246 11.3584C85.2685 11.248 85.3134 11.1487 85.3808 11.0604C85.4482 10.9721 85.5044 10.8727 85.5493 10.7623C85.7066 10.2987 85.7853 9.81304 85.7853 9.30528C85.7853 8.77544 85.8751 8.27872 86.0549 7.81511C86.1897 7.77096 86.3582 7.70473 86.5604 7.61642C86.7627 7.50604 86.9649 7.40669 87.1671 7.31839C87.3918 7.208 87.6053 7.1197 87.8075 7.05347C88.0097 6.98724 88.1894 6.96516 88.3467 6.98724C88.4591 7.03139 88.5714 7.09762 88.6838 7.18593C88.7961 7.25216 88.9309 7.34046 89.0882 7.45085C89.2006 7.51707 89.3017 7.59434 89.3915 7.68265C89.5039 7.77096 89.6162 7.84822 89.7286 7.91445C89.8185 7.95861 89.9308 8.00276 90.0656 8.04691C90.2229 8.06899 90.324 8.1021 90.369 8.14626C90.3914 8.16833 90.4588 8.2456 90.5712 8.37806C90.706 8.51052 90.8296 8.65402 90.9419 8.80856C91.0767 8.96309 91.2003 9.11763 91.3127 9.27216C91.425 9.40462 91.4924 9.49293 91.5149 9.53708C91.5374 9.66954 91.5261 9.82408 91.4812 10.0007C91.4362 10.1552 91.3688 10.3208 91.279 10.4974C91.2115 10.6519 91.1329 10.8175 91.043 10.9941C90.9756 11.1487 90.9194 11.2922 90.8745 11.4246C90.8071 11.6675 90.7397 11.9103 90.6723 12.1532C90.6049 12.3739 90.515 12.6057 90.4027 12.8486C90.2903 13.1356 90.1667 13.4667 90.0319 13.842C89.8971 14.2173 89.8072 14.6147 89.7623 15.0342C89.7174 15.3432 89.5938 15.575 89.3915 15.7296C89.2118 15.8841 89.0882 16.1049 89.0208 16.3919C88.9759 16.5905 88.9534 16.8003 88.9534 17.021C88.9534 17.2418 88.9534 17.4626 88.9534 17.6833C88.9759 17.882 88.9759 18.0807 88.9534 18.2794C88.9534 18.4781 88.9085 18.6657 88.8186 18.8424C88.7512 18.9527 88.6501 19.041 88.5153 19.1073C88.3804 19.1514 88.2681 19.2287 88.1782 19.3391C88.0434 19.5598 87.9198 19.8358 87.8075 20.167C87.7176 20.4981 87.639 20.8513 87.5716 21.2266C87.5041 21.5799 87.4704 21.9441 87.4704 22.3194C87.4929 22.6726 87.5603 22.9928 87.6727 23.2798C87.5603 23.633 87.3581 23.942 87.066 24.207C86.7964 24.4719 86.4706 24.6816 86.0886 24.8362C85.7066 24.9686 85.2909 25.0348 84.8416 25.0348C84.4146 25.0569 83.9765 24.9907 83.5271 24.8362C83.3474 24.5712 83.1339 24.3284 82.8867 24.1076C82.6396 23.8648 82.4486 23.5778 82.3138 23.2466Z" fill="white"/>
<path d="M107.206 9.47085C106.599 9.75785 105.993 9.90135 105.386 9.90135C104.779 9.90135 104.105 9.87927 103.364 9.83512C103.162 9.83512 102.937 9.84615 102.69 9.86823C102.465 9.89031 102.252 9.91238 102.049 9.93446C100.993 10.0448 100.106 10.4422 99.3867 11.1266C98.6677 11.7889 98.1397 12.6278 97.8026 13.6433C97.6903 14.0186 97.6004 14.3608 97.533 14.6699C97.4656 14.979 97.6116 15.1556 97.9712 15.1997C98.1958 15.2439 98.4205 15.2439 98.6452 15.1997C98.8699 15.1556 99.0946 15.1004 99.3193 15.0342C99.5665 14.9458 99.8024 14.8686 100.027 14.8023C100.252 14.7361 100.476 14.703 100.701 14.703C100.791 14.703 100.87 14.7251 100.937 14.7692C101.027 14.8134 101.117 14.8355 101.207 14.8355C101.589 14.8796 101.993 14.8575 102.42 14.7692C102.847 14.6588 103.24 14.6478 103.6 14.7361C103.667 14.7582 103.723 14.8023 103.768 14.8686C103.836 14.9127 103.925 14.9569 104.038 15.001C104.33 15.1114 104.678 15.1887 105.083 15.2328C105.487 15.2549 105.813 15.3211 106.06 15.4315C106.172 15.4757 106.285 15.564 106.397 15.6964C106.509 15.8068 106.566 15.8841 106.566 15.9283C106.566 16.1711 106.42 16.3256 106.127 16.3919C105.835 16.4581 105.588 16.5022 105.386 16.5243C105.206 16.5464 105.026 16.5464 104.847 16.5243C104.667 16.5022 104.487 16.5133 104.307 16.5574C103.993 16.6016 103.69 16.6678 103.397 16.7561C103.105 16.8224 102.791 16.9107 102.454 17.021C102.072 17.1535 101.712 17.3191 101.375 17.5178C101.038 17.6944 100.667 17.8048 100.263 17.8489C99.9709 17.8931 99.69 17.8931 99.4204 17.8489C99.1508 17.8048 98.8587 17.8048 98.5441 17.8489C98.4318 17.871 98.3194 17.9041 98.2071 17.9483C98.1172 17.9924 98.0161 18.0255 97.9037 18.0476C97.7015 18.0918 97.5442 18.1249 97.4319 18.1469C97.342 18.1469 97.2634 18.169 97.196 18.2132C97.151 18.2573 97.0949 18.3236 97.0274 18.4119C96.9825 18.5002 96.9039 18.6326 96.7915 18.8092C96.6118 19.2066 96.4994 19.6371 96.4545 20.1007C96.4095 20.5423 96.3646 21.0169 96.3197 21.5247C96.5668 21.7675 96.8028 21.9662 97.0274 22.1207C97.2521 22.2532 97.6004 22.3194 98.0723 22.3194C98.3194 22.3194 98.5104 22.2973 98.6452 22.2532C98.8025 22.187 99.0047 22.1428 99.2519 22.1207C99.499 22.1207 99.7462 22.1428 99.9934 22.187C100.241 22.209 100.521 22.209 100.836 22.187C101.488 22.1428 102.038 22.0655 102.487 21.9552C102.937 21.8227 103.487 21.7785 104.139 21.8227C104.274 21.8227 104.51 21.8337 104.847 21.8558C105.206 21.8779 105.566 21.911 105.925 21.9552C106.285 21.9772 106.599 22.0214 106.869 22.0876C107.161 22.1538 107.307 22.2422 107.307 22.3525C107.307 22.485 107.217 22.6285 107.037 22.783C106.88 22.9155 106.689 23.0479 106.464 23.1804C106.262 23.2908 106.049 23.3901 105.824 23.4784C105.622 23.5447 105.487 23.5888 105.42 23.6109C105.038 23.7213 104.667 23.7544 104.307 23.7102C103.948 23.644 103.555 23.633 103.128 23.6771C102.813 23.7213 102.532 23.7875 102.285 23.8758C102.038 23.9641 101.791 24.0635 101.544 24.1739C101.297 24.2622 101.038 24.3615 100.769 24.4719C100.521 24.5602 100.229 24.6154 99.8923 24.6375C99.4429 24.6816 99.0609 24.7368 98.7463 24.803C98.4318 24.8472 98.061 24.9134 97.6341 25.0017C97.4544 25.0459 97.2859 25.09 97.1286 25.1342C96.9713 25.2004 96.8028 25.2556 96.623 25.2998C95.9714 25.4322 95.2636 25.4543 94.4997 25.366C93.7582 25.2998 92.9493 25.3108 92.073 25.3991C91.5113 25.4653 91.0057 25.5426 90.5564 25.6309C90.1294 25.7413 89.6913 25.7744 89.2419 25.7303C89.0846 25.7082 88.9386 25.6861 88.8038 25.664C88.6465 25.664 88.5117 25.6088 88.3993 25.4984C88.4443 25.3218 88.5454 25.1673 88.7026 25.0348C88.8599 24.9024 89.0172 24.781 89.1745 24.6706C89.3318 24.5381 89.4778 24.4057 89.6126 24.2732C89.7699 24.1187 89.916 23.9752 90.0508 23.8427C90.1856 23.6661 90.298 23.4564 90.3878 23.2135C90.4777 22.9486 90.5564 22.6837 90.6238 22.4188C90.7136 22.1538 90.8035 21.911 90.8934 21.6902C91.0057 21.4474 91.1405 21.2377 91.2978 21.0611C91.1181 20.6637 91.1181 20.2111 91.2978 19.7033C91.5 19.1956 91.6798 18.6657 91.8371 18.1138C91.882 17.9814 91.9045 17.8489 91.9045 17.7165C91.9045 17.584 91.927 17.4626 91.9719 17.3522C92.0168 17.1314 92.118 16.9438 92.2752 16.7892C92.4325 16.6126 92.5336 16.436 92.5786 16.2594C92.601 16.149 92.601 16.0386 92.5786 15.9283C92.5786 15.8179 92.5898 15.7075 92.6123 15.5971C92.6572 15.266 92.7358 14.9569 92.8482 14.6699C92.983 14.3608 93.0729 14.0849 93.1178 13.842C93.1628 13.6654 93.1628 13.4888 93.1178 13.3122C93.0954 13.1135 93.0954 12.9258 93.1178 12.7492C93.1628 12.3077 93.2526 11.8882 93.3875 11.4909C93.5447 11.0935 93.6346 10.7403 93.6571 10.4312C93.6796 10.1883 93.6459 9.92342 93.556 9.63643C93.4661 9.34943 93.3762 9.12866 93.2863 8.97413C93.2189 8.86375 93.1178 8.75336 92.983 8.64298C92.8482 8.51052 92.7134 8.3891 92.5786 8.27872C92.4437 8.16833 92.3202 8.06899 92.2078 7.98068C92.118 7.8703 92.073 7.77096 92.073 7.68265C92.0955 7.43981 92.1966 7.31839 92.3763 7.31839C92.5561 7.29631 92.7246 7.21904 92.8819 7.08658C93.6908 7.10866 94.4547 7.19696 95.1737 7.3515C95.9152 7.50604 96.6792 7.60538 97.4656 7.64953C97.7577 7.69369 98.061 7.69369 98.3756 7.64953C98.6902 7.5833 98.9935 7.53915 99.2856 7.51708C99.7574 7.495 100.285 7.56123 100.87 7.71576C101.476 7.8703 102.072 7.92549 102.656 7.88134C103.442 7.83719 104.184 7.81511 104.88 7.81511C105.577 7.81511 106.307 7.79303 107.071 7.74888C107.206 7.85926 107.408 7.91445 107.678 7.91445C107.947 7.89238 108.217 7.8703 108.487 7.84822C108.779 7.80407 109.037 7.79303 109.262 7.81511C109.509 7.83719 109.678 7.93653 109.767 8.11314C109.902 8.42222 109.88 8.68713 109.7 8.9079C109.52 9.12866 109.273 9.27216 108.959 9.33839C108.869 9.33839 108.745 9.34943 108.588 9.37151C108.431 9.39358 108.262 9.41566 108.082 9.43774C107.903 9.45981 107.723 9.47085 107.543 9.47085C107.386 9.47085 107.273 9.47085 107.206 9.47085Z" fill="white"/>
<path d="M123.283 7.64953C123.462 7.69369 123.642 7.71576 123.822 7.71576C124.002 7.71576 124.181 7.73784 124.361 7.78199C124.429 7.78199 124.496 7.80407 124.563 7.84822C124.631 7.89238 124.698 7.92549 124.766 7.94757C124.833 7.96965 124.9 7.96965 124.968 7.94757C125.035 7.92549 125.103 7.92549 125.17 7.94757C125.687 8.08003 126.102 8.28976 126.417 8.57675C126.732 8.84167 127.046 9.17282 127.361 9.5702C127.496 9.79096 127.664 10.0559 127.866 10.365C128.069 10.6519 128.237 10.9831 128.372 11.3584C128.507 11.7116 128.585 12.0869 128.608 12.4843C128.63 12.8817 128.552 13.2791 128.372 13.6764C128.327 13.7868 128.26 13.9303 128.17 14.1069C128.08 14.2615 127.99 14.427 127.9 14.6037C127.765 14.8465 127.597 15.1004 127.394 15.3653C127.192 15.6302 126.979 15.8179 126.754 15.9283C126.574 16.0386 126.417 16.138 126.282 16.2263C126.17 16.3146 126.024 16.4029 125.844 16.4912C125.53 16.6016 125.215 16.7672 124.9 16.9879C124.608 17.1866 124.305 17.3522 123.99 17.4846C123.878 17.5288 123.754 17.5619 123.62 17.584C123.507 17.584 123.395 17.6061 123.283 17.6502C123.125 17.7385 123.002 17.86 122.912 18.0145C122.822 18.169 122.653 18.2794 122.406 18.3456C122.968 18.4781 123.485 18.7872 123.957 19.2729C124.429 19.7365 124.788 20.2221 125.035 20.7299C125.148 21.039 125.305 21.3149 125.507 21.5578C125.709 21.8006 125.799 22.0766 125.777 22.3857C125.934 22.5181 126.058 22.6947 126.147 22.9155C126.26 23.1142 126.35 23.3349 126.417 23.5778C126.484 23.8206 126.541 24.0745 126.586 24.3394C126.653 24.5823 126.732 24.803 126.821 25.0017C126.956 25.2887 127.102 25.5205 127.26 25.6971C127.417 25.8958 127.585 26.0724 127.765 26.227C127.945 26.4036 128.125 26.5802 128.304 26.7568C128.484 26.9555 128.641 27.1983 128.776 27.4853C128.866 27.4633 128.934 27.4301 128.979 27.386C129.046 27.3639 129.136 27.3639 129.248 27.386C129.585 27.6288 129.956 27.8165 130.36 27.9489C130.787 28.0814 131.304 28.1918 131.911 28.2801C132.428 28.3684 132.911 28.3905 133.36 28.3463C133.832 28.3242 134.315 28.2691 134.809 28.1808C134.967 28.1587 135.158 28.0924 135.382 27.9821C135.629 27.8938 135.865 27.8165 136.09 27.7503C136.337 27.684 136.551 27.6509 136.73 27.6509C136.91 27.673 137 27.7944 137 28.0152C137 28.1697 136.899 28.3574 136.697 28.5781C136.494 28.7989 136.315 28.9645 136.157 29.0749C135.775 29.3398 135.337 29.5495 134.843 29.704C134.349 29.8586 133.832 29.98 133.293 30.0683C132.753 30.1787 132.203 30.256 131.641 30.3001C131.079 30.3443 130.551 30.3774 130.057 30.3995C129.742 30.3995 129.45 30.3443 129.181 30.2339C128.934 30.1456 128.709 30.0793 128.507 30.0352C128.057 29.969 127.653 29.8917 127.293 29.8034C126.956 29.7151 126.631 29.5826 126.316 29.406C126.046 29.2515 125.81 29.0307 125.608 28.7437C125.406 28.4788 125.125 28.3132 124.766 28.247C124.181 27.7392 123.597 27.2204 123.013 26.6906C122.429 26.1828 121.968 25.5426 121.631 24.7699C121.519 24.5712 121.395 24.3836 121.26 24.207C121.126 24.0083 121.024 23.7986 120.957 23.5778C120.89 23.4233 120.845 23.2577 120.822 23.0811C120.822 22.9044 120.8 22.7058 120.755 22.485C120.71 22.2422 120.642 21.9883 120.553 21.7234C120.463 21.4364 120.373 21.1714 120.283 20.9286C120.261 20.8624 120.227 20.7961 120.182 20.7299C120.137 20.6637 120.103 20.5974 120.081 20.5312C120.036 20.3988 119.991 20.2442 119.946 20.0676C119.901 19.8689 119.822 19.7144 119.71 19.604C119.598 19.5157 119.407 19.4164 119.137 19.306C118.89 19.1956 118.676 19.1183 118.497 19.0742C118.25 19.03 118.002 19.041 117.755 19.1073C117.531 19.1735 117.317 19.2177 117.115 19.2397C116.823 19.2839 116.542 19.2949 116.272 19.2729C116.003 19.2287 115.778 19.2397 115.598 19.306C115.284 19.4164 115.025 19.7033 114.823 20.167C114.621 20.6306 114.497 21.1162 114.452 21.624C114.362 22.1318 114.228 22.6285 114.048 23.1142C113.868 23.5778 113.722 24.0304 113.61 24.4719C113.52 24.7589 113.374 24.9907 113.172 25.1673C112.969 25.366 112.688 25.4433 112.329 25.3991C112.149 25.377 112.003 25.3549 111.891 25.3329C111.801 25.3329 111.677 25.2887 111.52 25.2004C111.408 25.2446 111.205 25.3439 110.913 25.4984C110.644 25.6751 110.453 25.7965 110.34 25.8627C109.599 26.0835 109.172 26.0283 109.06 25.6971C108.97 25.366 109.015 24.8362 109.194 24.1076C109.307 23.644 109.475 23.1914 109.7 22.7499C109.947 22.3084 110.116 21.9331 110.206 21.624C110.251 21.4253 110.262 21.2487 110.239 21.0942C110.239 20.9176 110.228 20.752 110.206 20.5974C110.183 20.4429 110.172 20.3105 110.172 20.2001C110.172 20.0676 110.217 19.9462 110.307 19.8358C110.329 19.593 110.397 19.4053 110.509 19.2729C110.621 19.1183 110.7 18.9196 110.745 18.6768C110.79 18.456 110.846 18.2242 110.913 17.9814C110.981 17.7385 111.026 17.5067 111.048 17.286C111.071 17.021 111.082 16.7782 111.082 16.5574C111.104 16.3146 111.183 16.0386 111.318 15.7296C111.43 15.4426 111.543 15.1556 111.655 14.8686C111.79 14.5595 111.88 14.2615 111.924 13.9745C111.969 13.7537 111.992 13.5329 111.992 13.3122C112.014 13.0693 112.071 12.8375 112.16 12.6168C112.205 12.4402 112.295 12.2967 112.43 12.1863C112.587 12.0759 112.688 11.9324 112.733 11.7558C112.756 11.6233 112.745 11.5019 112.7 11.3915C112.655 11.2811 112.655 11.1707 112.7 11.0604C112.834 10.6188 112.879 10.2766 112.834 10.0338C112.79 9.76889 112.711 9.55916 112.599 9.40462C112.509 9.22801 112.419 9.06244 112.329 8.9079C112.261 8.75336 112.261 8.54364 112.329 8.27872C112.441 8.25664 112.542 8.16833 112.632 8.0138C112.722 7.83719 112.846 7.7268 113.003 7.68265C113.093 7.66057 113.261 7.64953 113.509 7.64953C113.756 7.62746 114.025 7.61642 114.317 7.61642C114.61 7.59434 114.89 7.59434 115.16 7.61642C115.43 7.61642 115.643 7.61642 115.8 7.61642C115.98 7.6385 116.205 7.6385 116.474 7.61642C116.744 7.57227 117.025 7.55019 117.317 7.55019C117.609 7.52811 117.879 7.51708 118.126 7.51708C118.396 7.51708 118.62 7.56123 118.8 7.64953H123.283ZM118.16 16.0938C118.339 16.0938 118.508 16.0497 118.665 15.9614C118.845 15.8731 119.013 15.851 119.171 15.8951C119.395 15.9393 119.62 15.9724 119.845 15.9945C120.07 16.0166 120.317 16.0497 120.586 16.0938C120.699 16.1159 120.811 16.1049 120.923 16.0607C121.036 16.0166 121.182 16.0055 121.361 16.0276C121.721 15.7627 122.036 15.564 122.305 15.4315C122.597 15.2991 122.867 15.0342 123.114 14.6368C123.226 14.4381 123.35 14.2504 123.485 14.0738C123.62 13.8751 123.71 13.7096 123.754 13.5771C123.912 13.0693 123.889 12.6388 123.687 12.2856C123.485 11.9103 123.294 11.5792 123.114 11.2922C122.889 10.961 122.676 10.7292 122.474 10.5968C122.271 10.4422 121.934 10.387 121.463 10.4312C121.081 10.4533 120.687 10.4533 120.283 10.4312C119.879 10.387 119.485 10.376 119.103 10.3981C118.744 10.4201 118.418 10.4864 118.126 10.5968C117.834 10.7071 117.62 10.9058 117.486 11.1928C117.373 11.524 117.238 11.8882 117.081 12.2856C116.924 12.683 116.778 13.0914 116.643 13.5109C116.508 13.9082 116.396 14.3167 116.306 14.7361C116.216 15.1556 116.171 15.564 116.171 15.9614C116.508 15.9172 116.845 15.9393 117.182 16.0276C117.519 16.0938 117.845 16.1159 118.16 16.0938Z" fill="white"/>
<path d="M10.7868 15.0181C10.9082 14.7015 11.0363 14.3779 11.1711 14.0475C11.3195 13.7171 11.4611 13.3798 11.5959 13.0356C11.7443 12.6914 11.8791 12.3404 12.0005 11.9824C12.1219 11.6107 12.2163 11.2321 12.2837 10.8466C12.3242 10.6126 12.3646 10.351 12.4051 10.0619C12.459 9.7728 12.459 9.49057 12.4051 9.21522C12.3916 9.13262 12.3376 9.05002 12.2432 8.96741C12.1623 8.87104 12.1219 8.7609 12.1219 8.637C12.1219 8.52686 12.1488 8.40984 12.2028 8.28593C12.2702 8.14826 12.3444 8.01059 12.4253 7.87292C12.5062 7.73524 12.5804 7.60445 12.6478 7.48055C12.7287 7.35664 12.7894 7.24651 12.8299 7.15014C13.0456 7.1226 13.2682 7.06753 13.4974 6.98493C13.7267 6.88856 13.9559 6.84037 14.1852 6.84037C14.3335 6.82661 14.4819 6.85414 14.6302 6.92298C14.7785 6.99181 14.9201 7.04 15.055 7.06753C15.6214 7.17767 16.1608 7.19832 16.6733 7.12949C17.1857 7.04688 17.7251 6.9574 18.2915 6.86102C18.4264 6.83349 18.5545 6.83349 18.6759 6.86102C18.8107 6.87479 18.9456 6.86791 19.0804 6.84037C19.1614 6.82661 19.2423 6.80596 19.3232 6.77842C19.4041 6.73712 19.485 6.70958 19.5659 6.69582C19.6603 6.66828 19.7547 6.6614 19.8491 6.67517C19.9435 6.67517 20.0379 6.71647 20.1323 6.79907C20.1188 6.96428 20.0716 7.08818 19.9907 7.17079C19.9233 7.25339 19.8289 7.32223 19.7075 7.3773C19.5996 7.4186 19.4783 7.45302 19.3434 7.48055C19.2086 7.50808 19.0804 7.5425 18.9591 7.5838C18.7163 7.66641 18.5006 7.80408 18.3118 7.99682C18.1365 8.1758 17.9611 8.32035 17.7858 8.43049C17.6645 8.637 17.5296 8.83662 17.3813 9.02936C17.2464 9.20834 17.125 9.40108 17.0171 9.60759C16.9093 9.80033 16.7946 10.0068 16.6733 10.2271C16.5519 10.4336 16.4575 10.6539 16.3901 10.8879C16.3361 11.0669 16.3092 11.2459 16.3092 11.4249C16.3092 11.6038 16.2889 11.7897 16.2485 11.9824C16.1945 12.1889 16.1069 12.3886 15.9855 12.5813C15.8776 12.7741 15.7967 12.9874 15.7428 13.2215C15.7158 13.4005 15.6956 13.5794 15.6821 13.7584C15.6686 13.9236 15.6551 14.1026 15.6416 14.2953C15.6146 14.5844 15.5405 14.8736 15.4191 15.1627C15.3112 15.4518 15.2101 15.7547 15.1157 16.0713C15.0348 16.388 14.9673 16.6839 14.9134 16.9593C14.8595 17.2346 14.8055 17.5031 14.7516 17.7647C14.6841 18.0125 14.5965 18.2052 14.4886 18.3429C14.3942 18.4806 14.2728 18.632 14.1245 18.7972C13.9761 19.3204 13.8683 19.9055 13.8008 20.5525C13.7469 21.1996 13.666 21.8191 13.5581 22.4111C13.5311 22.6039 13.5041 22.7897 13.4772 22.9687C13.4637 23.1614 13.43 23.3335 13.376 23.485C13.2547 23.8291 13.1063 24.1664 12.931 24.4969C12.7692 24.841 12.6343 25.1715 12.5264 25.4881C12.486 25.612 12.4523 25.7359 12.4253 25.8598C12.4118 25.9837 12.3714 26.1007 12.3039 26.2109C12.2365 26.3348 12.1488 26.438 12.041 26.5206C11.9331 26.617 11.8522 26.7203 11.7982 26.8304C11.7712 26.8992 11.7578 26.9681 11.7578 27.0369C11.7712 27.1057 11.7645 27.1746 11.7375 27.2434C11.6296 27.6151 11.4678 27.9387 11.2521 28.214C11.0498 28.5031 10.8407 28.7854 10.625 29.0607C10.4227 29.3085 10.2137 29.5357 9.99789 29.7422C9.79561 29.9624 9.54612 30.1414 9.24944 30.2791C9.15504 30.5269 8.99996 30.6921 8.78419 30.7747C8.5819 30.8573 8.35939 30.9675 8.11665 31.1051C8.00876 31.1602 7.90762 31.229 7.81322 31.3116C7.73231 31.3942 7.6514 31.4493 7.57048 31.4768C7.38168 31.5594 7.16591 31.5939 6.92317 31.5801C6.69392 31.5663 6.4714 31.5801 6.25563 31.6214C5.97244 31.6627 5.69598 31.7247 5.42627 31.8073C5.15656 31.9036 4.88685 31.9656 4.61713 31.9931C4.41485 32.0069 4.21931 32 4.03051 31.9725C3.84171 31.9587 3.65291 31.9381 3.46411 31.9105C3.30229 31.883 3.13372 31.8554 2.9584 31.8279C2.79658 31.8004 2.61452 31.7315 2.41224 31.6214C2.34481 31.5663 2.27738 31.5113 2.20995 31.4562C2.15601 31.4011 2.09533 31.3529 2.0279 31.3116C1.8391 31.1877 1.66379 31.0638 1.50196 30.9399C1.34013 30.8298 1.18505 30.6646 1.03671 30.4443C0.969278 30.3617 0.908593 30.2653 0.85465 30.1552C0.787222 30.0588 0.719794 29.9556 0.652366 29.8454C0.51751 29.6389 0.402882 29.4186 0.308483 29.1846C0.200598 28.9506 0.126428 28.6821 0.0859707 28.3792C0.0455139 28.1727 0.0185427 27.9249 0.0050571 27.6358C-0.0084285 27.3604 0.0050571 27.1264 0.0455139 26.9337C0.0724851 26.8648 0.112942 26.796 0.166884 26.7271C0.220827 26.6583 0.268026 26.5688 0.308483 26.4587C0.402882 26.2246 0.510767 25.9768 0.632138 25.7153C0.740023 25.4674 0.888364 25.2609 1.07716 25.0957C1.14459 25.0407 1.2255 24.9856 1.3199 24.9305C1.40082 24.8755 1.48847 24.8135 1.58287 24.7447C1.71773 24.6483 1.85259 24.545 1.98744 24.4349C2.1223 24.3385 2.27738 24.249 2.45269 24.1664C2.64149 24.0976 2.85052 24.0494 3.07978 24.0219C3.32252 23.9944 3.60571 24.0081 3.92937 24.0632C4.32045 24.132 4.67108 24.2903 4.98125 24.5382C5.3049 24.7997 5.56113 25.082 5.74992 25.3848C5.83084 25.5225 5.90501 25.6671 5.97244 25.8185C6.03987 25.9837 6.05335 26.1627 6.01289 26.3554C5.94547 26.4243 5.84432 26.5138 5.70947 26.6239C5.5881 26.7478 5.4465 26.796 5.28467 26.7684C5.20376 26.7547 5.12284 26.7065 5.04193 26.6239C4.9745 26.5551 4.90033 26.4725 4.81942 26.3761C4.75199 26.2797 4.67782 26.1833 4.59691 26.087C4.51599 25.9906 4.42834 25.9218 4.33394 25.8805C4.22605 25.8392 4.09794 25.8047 3.9496 25.7772C3.80125 25.7634 3.67314 25.7634 3.56526 25.7772C3.38994 25.791 3.25509 25.8116 3.16069 25.8392C3.06629 25.8667 2.98538 25.9011 2.91795 25.9424C2.86401 25.9837 2.81006 26.0388 2.75612 26.1076C2.71566 26.1765 2.64824 26.2591 2.55384 26.3554C2.52687 26.617 2.49315 26.8579 2.45269 27.0782C2.42572 27.3123 2.46618 27.5257 2.57406 27.7184C2.62801 27.801 2.68869 27.8767 2.75612 27.9455C2.82355 28.0144 2.89098 28.0901 2.9584 28.1727C3.02583 28.2415 3.1 28.3104 3.18092 28.3792C3.27532 28.4481 3.336 28.5169 3.36297 28.5857C3.40343 28.6683 3.41017 28.7509 3.3832 28.8335C3.36972 28.9161 3.40343 28.9919 3.48434 29.0607C3.59223 29.1295 3.68663 29.1364 3.76754 29.0813C3.86194 29.04 3.94285 29.0056 4.01028 28.9781C4.40136 29.0882 4.77896 29.1158 5.14307 29.0607C5.50718 29.0056 5.84432 28.9024 6.15449 28.7509C6.47815 28.5995 6.76135 28.4067 7.00409 28.1727C7.26031 27.9524 7.46934 27.7184 7.63117 27.4706C7.6986 27.443 7.76602 27.4155 7.83345 27.388C7.91436 27.3742 7.98179 27.3536 8.03574 27.326C8.00876 27.1057 8.01551 26.8992 8.05596 26.7065C8.09642 26.5275 8.15036 26.3485 8.21779 26.1696C8.2987 26.0044 8.37962 25.8392 8.46053 25.674C8.54144 25.5225 8.61562 25.3573 8.68304 25.1783C8.77744 24.9581 8.85161 24.7171 8.90556 24.4556C8.9595 24.194 9.01344 23.9462 9.06738 23.7121C9.12133 23.4781 9.18875 23.2509 9.26967 23.0306C9.36407 22.8104 9.44498 22.5832 9.51241 22.3492C9.60681 22.1014 9.68098 21.8535 9.73492 21.6057C9.78886 21.3579 9.84955 21.1101 9.91698 20.8623C9.9844 20.6283 10.0586 20.3942 10.1395 20.1602C10.2339 19.9261 10.2878 19.6921 10.3013 19.458C10.2339 19.6095 10.1327 19.7265 9.99789 19.8091C9.87652 19.8779 9.75515 19.9743 9.63378 20.0982C9.48544 20.2497 9.35732 20.4149 9.24944 20.5938C9.15504 20.7728 9.03367 20.9174 8.88533 21.0275C8.75047 21.1239 8.5819 21.1996 8.37962 21.2547C8.19082 21.3097 8.02225 21.3855 7.87391 21.4818C7.56374 21.6746 7.2738 21.8398 7.00409 21.9775C6.73438 22.1014 6.37026 22.1977 5.91175 22.2666C5.50718 22.3216 5.14982 22.3354 4.83965 22.3079C4.54296 22.2666 4.23954 22.1633 3.92937 21.9981C3.78103 21.9155 3.60571 21.7916 3.40343 21.6264C3.2416 21.5025 3.07303 21.3923 2.89772 21.296C2.73589 21.1858 2.60104 21.0482 2.49315 20.883C2.45269 20.8141 2.41224 20.7177 2.37178 20.5938C2.33132 20.4699 2.30435 20.3667 2.29087 20.2841C2.27738 20.1739 2.28412 20.0707 2.3111 19.9743C2.33807 19.8642 2.33807 19.7678 2.3111 19.6852C2.28412 19.6164 2.23018 19.5751 2.14927 19.5613C2.08184 19.5338 2.01441 19.4856 1.94698 19.4167C1.8391 19.3066 1.77167 19.1965 1.7447 19.0863C1.71773 18.9624 1.67053 18.8454 1.6031 18.7353C1.57613 18.3636 1.57613 17.9918 1.6031 17.6201C1.64356 17.2484 1.67727 16.8492 1.70424 16.4224C1.73121 16.147 1.7447 15.8717 1.7447 15.5963C1.7447 15.321 1.7919 15.0456 1.8863 14.7703C1.92676 14.6326 1.97396 14.5018 2.0279 14.3779C2.08184 14.2403 2.1223 14.0957 2.14927 13.9443C2.18973 13.7928 2.22344 13.6483 2.25041 13.5106C2.29087 13.3592 2.33132 13.2215 2.37178 13.0976C2.43921 12.8911 2.53361 12.6915 2.65498 12.4987C2.78983 12.306 2.87075 12.1132 2.89772 11.9205C2.9112 11.8103 2.90446 11.7071 2.87749 11.6107C2.85052 11.5143 2.84378 11.4111 2.85726 11.301C2.87075 11.0669 2.91121 10.8604 2.97863 10.6814C3.05955 10.5025 3.14046 10.3097 3.22137 10.1032C3.2888 9.74526 3.3832 9.41485 3.50457 9.11197C3.63943 8.80909 3.76754 8.50621 3.88891 8.20333C3.9968 7.96929 4.0912 7.73524 4.17211 7.5012C4.25302 7.25339 4.38114 7.03311 4.55645 6.84037C4.65085 6.81284 4.71828 6.83349 4.75873 6.90233C4.79919 6.97116 4.85313 6.98493 4.92056 6.94363C5.10936 6.86102 5.3049 6.82661 5.50718 6.84037C5.70947 6.84037 5.9185 6.82661 6.13426 6.79907C6.24215 6.7853 6.34329 6.76465 6.43769 6.73712C6.54558 6.69582 6.65346 6.6614 6.76135 6.63386C7.04454 6.5788 7.321 6.55814 7.59071 6.57191C7.86042 6.57191 8.04922 6.7027 8.15711 6.96428C8.23802 7.18455 8.24476 7.39106 8.17733 7.5838C8.12339 7.77655 8.03574 7.9624 7.91436 8.14138C7.80648 8.30659 7.68511 8.47179 7.55025 8.637C7.42888 8.80221 7.34123 8.96741 7.28728 9.13262C7.09848 9.14639 6.95014 9.19457 6.84226 9.27717C6.73437 9.35978 6.63997 9.46992 6.55906 9.60759C6.47815 9.73149 6.41072 9.87605 6.35678 10.0413C6.30283 10.2065 6.24215 10.3786 6.17472 10.5575C6.09381 10.7503 6.00615 10.9361 5.91175 11.1151C5.83084 11.2803 5.7769 11.4455 5.74992 11.6107C5.72295 11.7897 5.70947 11.9618 5.70947 12.127C5.70947 12.2784 5.67575 12.4299 5.60833 12.5813C5.56787 12.7052 5.50044 12.8291 5.40604 12.953C5.31164 13.0632 5.23747 13.1871 5.18353 13.3247C5.15656 13.3936 5.14307 13.4693 5.14307 13.5519C5.15656 13.6345 5.14982 13.7171 5.12284 13.7997C5.09587 13.8685 5.0689 13.9305 5.04193 13.9856C5.01496 14.0269 4.98799 14.0751 4.96102 14.1301C4.92056 14.2816 4.88685 14.4468 4.85988 14.6257C4.84639 14.791 4.81268 14.9699 4.75873 15.1627C4.69131 15.3967 4.63736 15.617 4.59691 15.8235C4.56993 16.0162 4.55645 16.2434 4.55645 16.505C4.54296 16.7803 4.51599 17.035 4.47554 17.2691C4.44856 17.5031 4.43508 17.7165 4.43508 17.9092C4.44856 18.102 4.49576 18.2672 4.57668 18.4049C4.67108 18.5288 4.8329 18.6114 5.06216 18.6527C5.14307 18.8867 5.3049 19.0863 5.54764 19.2515C5.80387 19.4167 6.10729 19.4856 6.45792 19.458C6.74112 19.4305 7.01083 19.3341 7.26706 19.1689C7.52328 18.99 7.74579 18.8661 7.93459 18.7972C8.06945 18.632 8.21779 18.4875 8.37962 18.3636C8.54145 18.2259 8.69653 18.0882 8.84487 17.9505C9.0067 17.8129 9.15504 17.6683 9.2899 17.5169C9.43824 17.3654 9.56635 17.1933 9.67424 17.0006C9.74166 16.9455 9.83606 16.8973 9.95743 16.856C10.0923 16.8147 10.1867 16.7253 10.2406 16.5876C10.2811 16.5187 10.2946 16.4224 10.2811 16.2985C10.2811 16.1746 10.3013 16.0644 10.3418 15.9681C10.3822 15.8717 10.4429 15.796 10.5238 15.7409C10.6047 15.6721 10.6722 15.6032 10.7261 15.5344C10.7935 15.4655 10.834 15.3967 10.8475 15.3279C10.8745 15.2453 10.8542 15.142 10.7868 15.0181Z" fill="#B90504"/>
<path d="M90.7177 2.42372C91.058 2.48681 91.3769 2.70764 91.6746 3.0862C91.9936 3.46475 92.0999 3.89589 91.9936 4.3796C91.866 4.96847 91.5577 5.44167 91.0686 5.79919C90.6008 6.17775 90.0692 6.43012 89.4737 6.55631C89.1548 6.59837 88.8571 6.52476 88.5806 6.33548C88.3042 6.14621 88.0915 5.90435 87.9427 5.60992C87.7938 5.29445 87.7194 4.95795 87.7194 4.60043C87.7194 4.2429 87.8257 3.9064 88.0384 3.59094C88.1447 3.44372 88.2935 3.32805 88.4849 3.24393C88.655 3.1598 88.8252 3.05465 88.9953 2.92846C89.1229 2.82331 89.2717 2.70764 89.4418 2.58145C89.612 2.43423 89.8033 2.35011 90.016 2.32908C90.1223 2.32908 90.2393 2.33959 90.3668 2.36063C90.4944 2.38166 90.6114 2.40269 90.7177 2.42372Z" fill="#B90504"/>
</svg>
