<svg width="33" height="23" viewBox="0 0 33 23" fill="none" xmlns="http://www.w3.org/2000/svg">
<path d="M8.83009 11.5C8.82941 11.0995 8.90795 10.7028 9.06121 10.3325C9.21447 9.96233 9.43945 9.62586 9.72327 9.34242C10.0071 9.05897 10.3442 8.8341 10.7153 8.68067C11.0864 8.52725 11.4841 8.44828 11.8859 8.44828H11.8686C12.2703 8.44828 12.6681 8.52725 13.0392 8.68067C13.4102 8.8341 13.7473 9.05897 14.0312 9.34242C14.315 9.62586 14.54 9.96233 14.6932 10.3325C14.8465 10.7028 14.925 11.0995 14.9243 11.5C14.9243 12.308 14.6024 13.0829 14.0293 13.6542C13.4563 14.2256 12.679 14.5466 11.8686 14.5466H11.8859C11.0754 14.5466 10.2982 14.2256 9.72511 13.6542C9.15204 13.0829 8.83009 12.308 8.83009 11.5ZM23.1267 6.09828H28.8163C29.6267 6.09828 30.4039 5.7773 30.977 5.20596C31.5501 4.63462 31.872 3.85972 31.872 3.05172C31.8727 2.65121 31.7942 2.25449 31.6409 1.88427C31.4877 1.51405 31.2627 1.17759 30.9789 0.894142C30.695 0.610696 30.3579 0.385826 29.9869 0.232399C29.6158 0.0789719 29.218 -5.77239e-07 28.8163 0H23.1267C22.725 -5.77239e-07 22.3272 0.0789719 21.9561 0.232399C21.585 0.385826 21.2479 0.610696 20.9641 0.894142C20.6803 1.17759 20.4553 1.51405 20.302 1.88427C20.1488 2.25449 20.0702 2.65121 20.0709 3.05172C20.0709 3.85972 20.3929 4.63462 20.9659 5.20596C21.539 5.7773 22.3162 6.09828 23.1267 6.09828ZM3.58495 22.9948H14.6355C15.446 22.9948 16.2232 22.6739 16.7963 22.1025C17.3694 21.5312 17.6913 20.7563 17.6913 19.9483C17.692 19.5478 17.6135 19.151 17.4602 18.7808C17.3069 18.4106 17.082 18.0741 16.7981 17.7907C16.5143 17.5072 16.1772 17.2824 15.8061 17.129C15.4351 16.9755 15.0373 16.8966 14.6355 16.8966H3.58495C3.18323 16.8966 2.78544 16.9755 2.41436 17.129C2.04328 17.2824 1.70618 17.5072 1.42236 17.7907C1.13854 18.0741 0.913561 18.4106 0.760299 18.7808C0.607037 19.151 0.528501 19.5478 0.529183 19.9483C0.529183 20.7563 0.851129 21.5312 1.4242 22.1025C1.99727 22.6739 2.77451 22.9948 3.58495 22.9948ZM18.0977 14.5466H19.1786L21.7034 8.44828H20.2594L18.7203 12.4483H18.703L17.1898 8.44828H15.6507L18.0977 14.5466ZM23.7095 14.5466H25.0584V8.44828H23.7095V14.5466ZM27.5486 14.5466H31.8634V13.3103H28.8975V12.069H31.5521V10.8276H28.8975V9.68966H31.7077V8.44828H27.5573L27.5486 14.5466ZM1.74665 6.10345H3.09555V1.18966H4.8422V0H0V1.18966H1.74665V6.10345ZM6.74449 6.10345H8.09339V3.46552H10.7047V6.10345H12.0536V0H10.7047V2.27586H8.08474V0H6.74449V6.10345ZM13.8781 6.10345H18.2015V4.86207H15.2183V3.62069H17.8729V2.37931H15.2183V1.24138H18.0285V0H13.8781V6.10345ZM0.21617 14.5517H1.55642V9.87069H1.57371L3.13013 14.5517H4.15045L5.75876 9.87069H5.77605V14.5517H7.12495V8.44828H5.09295L3.67488 12.431H3.65759L2.24816 8.44828H0.207523L0.21617 14.5517ZM19.6005 23H21.7899C22.2334 23.0023 22.6745 22.9354 23.0973 22.8017C23.4963 22.6775 23.8686 22.4805 24.1954 22.2207C24.5132 21.9628 24.771 21.6393 24.9511 21.2724C25.1507 20.8657 25.2526 20.4183 25.2486 19.9655C25.2627 19.4754 25.1633 18.9887 24.9581 18.5431C24.7777 18.1675 24.5097 17.8406 24.1764 17.5897C23.8273 17.3402 23.4315 17.1631 23.0125 17.069C22.5561 16.9553 22.0874 16.8974 21.617 16.8966H19.5919L19.6005 23ZM20.9511 18.1379H21.7467C22.0195 18.137 22.2912 18.1729 22.5543 18.2448C22.7962 18.3104 23.0237 18.4203 23.2253 18.569C23.4168 18.7143 23.5719 18.902 23.6783 19.1172C23.7971 19.3597 23.8564 19.6268 23.8513 19.8966C23.8587 20.1976 23.7997 20.4966 23.6783 20.7724C23.5749 20.9997 23.4162 21.1977 23.2166 21.3483C23.01 21.4993 22.7746 21.6067 22.5249 21.6638C22.2413 21.7289 21.9511 21.7607 21.6602 21.7586H20.9425L20.9511 18.1379ZM27.201 23H29.7086C29.9835 22.9994 30.2576 22.9705 30.5266 22.9138C30.7873 22.862 31.0371 22.7657 31.265 22.6293C31.4815 22.5006 31.665 22.3235 31.8011 22.1121C31.9469 21.8687 32.019 21.5885 32.0087 21.3052C32.0102 21.1171 31.9779 20.9302 31.9135 20.7534C31.8538 20.5865 31.7615 20.433 31.642 20.3017C31.5217 20.1703 31.3781 20.0622 31.2183 19.9828C31.046 19.895 30.8601 19.8367 30.6684 19.8103V19.7931C30.9654 19.708 31.2314 19.5391 31.4345 19.3069C31.6334 19.0645 31.7361 18.7577 31.7233 18.4448C31.7371 18.1639 31.6679 17.8852 31.5244 17.6431C31.3957 17.4438 31.2168 17.2815 31.0056 17.1724C30.7798 17.0574 30.5359 16.9816 30.2845 16.9483C30.0191 16.9119 29.7516 16.8935 29.4838 16.8931H27.201V23ZM28.5499 18.0345H29.4665C29.5738 18.0351 29.6808 18.0449 29.7864 18.0638C29.8891 18.0816 29.9883 18.1154 30.0804 18.1638C30.1668 18.2097 30.24 18.2767 30.2931 18.3586C30.3509 18.4528 30.3792 18.5621 30.3744 18.6724C30.3775 18.7804 30.3524 18.8873 30.3018 18.9828C30.255 19.0669 30.1878 19.1381 30.1064 19.1897C30.0233 19.2429 29.9313 19.2808 29.8349 19.3017C29.7338 19.3244 29.6306 19.336 29.527 19.3362H28.5344L28.5499 18.0345ZM28.5499 20.4741H29.5703C29.6889 20.4747 29.8073 20.4834 29.9248 20.5C30.0438 20.5162 30.1601 20.5481 30.2706 20.5948C30.3771 20.6384 30.4711 20.7077 30.5439 20.7966C30.6183 20.8958 30.6561 21.0176 30.6511 21.1414C30.6555 21.2588 30.6274 21.3751 30.5698 21.4776C30.5168 21.5674 30.4441 21.644 30.3571 21.7017C30.2694 21.7599 30.1714 21.8009 30.0683 21.8224C29.9643 21.8448 29.8582 21.8563 29.7518 21.8569H28.5413L28.5499 20.4741Z" fill="url(#paint0_linear_35_3)"/>
<defs>
<linearGradient id="paint0_linear_35_3" x1="0" y1="11.5" x2="32" y2="11.5" gradientUnits="userSpaceOnUse">
<stop stop-color="#90CEA1"/>
<stop offset="0.56" stop-color="#3CBEC9"/>
<stop offset="1" stop-color="#00B3E5"/>
</linearGradient>
</defs>
</svg>
