<svg width="16" height="15" viewBox="0 0 16 15" fill="none" xmlns="http://www.w3.org/2000/svg">
<path d="M5.98661 0.506653C7.41171 0.506653 8.77844 1.07277 9.78613 2.08047C10.7938 3.08816 11.3599 4.45489 11.3599 5.87998C11.3599 7.21092 10.8722 8.43438 10.0703 9.37678L10.2935 9.59998H10.9466L15.0799 13.7333L13.8399 14.9733L9.70661 10.84V10.1869L9.48341 9.96372C8.54101 10.7656 7.31755 11.2533 5.98661 11.2533C4.56152 11.2533 3.19479 10.6872 2.18709 9.6795C1.1794 8.67181 0.613281 7.30508 0.613281 5.87998C0.613281 4.45489 1.1794 3.08816 2.18709 2.08047C3.19479 1.07277 4.56152 0.506653 5.98661 0.506653ZM5.98661 2.15999C3.91995 2.15999 2.26661 3.81332 2.26661 5.87998C2.26661 7.94665 3.91995 9.59998 5.98661 9.59998C8.05328 9.59998 9.70661 7.94665 9.70661 5.87998C9.70661 3.81332 8.05328 2.15999 5.98661 2.15999Z" fill="#202020"/>
</svg>
